<svg width="960" height="640" viewBox="0 0 960 640" fill="none" xmlns="http://www.w3.org/2000/svg">
  <rect width="960" height="640" rx="36" fill="#FFF7ED"/>
  <rect x="88" y="94" width="784" height="452" rx="30" fill="#111827"/>
  <rect x="134" y="140" width="308" height="248" rx="24" fill="#FFF7ED"/>
  <rect x="172" y="180" width="120" height="16" rx="8" fill="#B45309"/>
  <rect x="172" y="214" width="174" height="14" rx="7" fill="#FDBA74"/>
  <rect x="172" y="258" width="96" height="96" rx="20" fill="#FB923C"/>
  <rect x="286" y="258" width="116" height="18" rx="9" fill="#FED7AA"/>
  <rect x="286" y="292" width="94" height="14" rx="7" fill="#FDBA74"/>
  <rect x="478" y="140" width="346" height="248" rx="24" fill="#FFFFFF"/>
  <rect x="516" y="180" width="114" height="16" rx="8" fill="#06469F"/>
  <rect x="516" y="214" width="184" height="14" rx="7" fill="#93C5FD"/>
  <rect x="516" y="258" width="116" height="94" rx="18" fill="#DBEAFE"/>
  <rect x="648" y="258" width="138" height="94" rx="18" fill="#D1FAE5"/>
  <rect x="134" y="420" width="690" height="86" rx="20" fill="#F8FAFC"/>
  <rect x="172" y="454" width="150" height="12" rx="6" fill="#B45309"/>
  <rect x="346" y="454" width="120" height="12" rx="6" fill="#06469F"/>
  <rect x="490" y="454" width="140" height="12" rx="6" fill="#20C594"/>
</svg>
