<svg width="960" height="640" viewBox="0 0 960 640" fill="none" xmlns="http://www.w3.org/2000/svg">
  <rect width="960" height="640" rx="36" fill="#FFF7ED"/>
  <rect x="78" y="92" width="804" height="456" rx="32" fill="#111827"/>
  <rect x="122" y="136" width="344" height="236" rx="26" fill="#1E293B"/>
  <rect x="162" y="176" width="148" height="16" rx="8" fill="#FB923C"/>
  <rect x="162" y="210" width="198" height="14" rx="7" fill="#FDBA74"/>
  <path d="M186 304L240 250L296 304" stroke="#FED7AA" stroke-width="16" stroke-linecap="round" stroke-linejoin="round"/>
  <path d="M402 304L348 250L292 304" stroke="#FED7AA" stroke-width="16" stroke-linecap="round" stroke-linejoin="round"/>
  <rect x="504" y="136" width="334" height="236" rx="26" fill="#FFF7ED"/>
  <rect x="542" y="176" width="108" height="16" rx="8" fill="#EA580C"/>
  <rect x="542" y="214" width="228" height="14" rx="7" fill="#FDBA74"/>
  <rect x="542" y="242" width="184" height="14" rx="7" fill="#FED7AA"/>
  <circle cx="660" cy="316" r="42" fill="#FB923C"/>
  <path d="M644 316H676M660 300V332" stroke="white" stroke-width="12" stroke-linecap="round"/>
  <rect x="122" y="406" width="716" height="98" rx="24" fill="#1E293B"/>
  <rect x="160" y="444" width="184" height="14" rx="7" fill="#FB923C"/>
  <rect x="376" y="444" width="132" height="14" rx="7" fill="#FDBA74"/>
  <rect x="540" y="444" width="118" height="14" rx="7" fill="#FDBA74"/>
</svg>
