<svg xmlns="http://www.w3.org/2000/svg" viewBox="0 0 1000 321"><path fill="#fb4e20" d="M586.219 210.834c-6.38 4.536-14.429 7.232-23.146 7.232-22.052 0-39.926-17.874-39.926-39.926s17.874-39.926 39.926-39.926c8.717 0 16.766 2.696 23.146 7.232l19.703-19.703c-11.733-9.037-26.162-14.429-42.849-14.429-38.818 0-70.284 31.466-70.284 70.284s31.466 70.284 70.284 70.284c16.687 0 31.116-5.392 42.849-14.429l-19.703-19.703zm-135.678 27.682h30.358V82.516h-30.358v156zm-63.052-156v156h30.358v-156h-30.358zm-63.052 0v156h30.358v-156h-30.358zm-63.052 0v156h30.358v-156h-30.358zm-63.052 0v156h30.358v-156h-30.358zm-63.052 0v156h30.358v-156h-30.358zm-63.052 0v156h30.358v-156H72.229z"/></svg>