<svg xmlns="http://www.w3.org/2000/svg" viewBox="0 0 576 144"><path fill="#00c3f7" d="M73.687 0L8.881 64.806l21.074 21.074 85.88-85.88H73.687zm35.248 0l-94.16 94.16 21.074 21.074L143.009 8.074 129.861 0h-20.926zm35.249 0L39.053 109.131l21.074 21.074L179.62 10.712 164.934 0h-20.75zm35.248 0L74.302 109.131l21.074 21.074L214.868 10.712 200.182 0h-20.75zm35.249 0L109.551 109.131l21.074 21.074L250.117 10.712 235.431 0H214.68zm35.248 0L144.799 109.131l21.074 21.074L285.365 10.712 270.679 0h-20.75zm35.249 0L180.048 109.131l21.074 21.074L320.614 10.712 305.928 0h-20.75zm35.248 0L215.297 109.131l21.074 21.074L355.862 10.712 341.176 0h-20.75z"/></svg>